<svg viewBox="0 0 130 130" fill="none" xmlns="http://www.w3.org/2000/svg">
<g opacity="0.2">
<path d="M130 65C130 100.899 100.899 130 65 130C29.1015 130 0 100.899 0 65C0 29.1015 29.1015 0 65 0C100.899 0 130 29.1015 130 65Z" fill="#575757"/>
<path d="M15.2871 106.879L32.343 86.5338C32.9456 85.4886 33.7692 85.2679 34.5928 85.0472C35.4163 84.8266 36.2399 84.6059 37.2844 85.2098L56.8686 105.592L84.6085 70.7618C85.2111 69.7165 86.0347 69.4959 86.8582 69.2752C86.8582 69.2752 87.6818 69.0545 88.7263 69.6584L121.098 97.8544C109.809 117.087 88.9126 130 65 130C45.0563 130 27.2105 121.018 15.2871 106.879Z" fill="#DEDEDE"/>
<path d="M52.4501 52.8653C55.905 49.2883 58.3154 45.1073 57.8133 39.9392C57.3112 34.7711 55.9856 29.8236 52.4102 26.3628C48.8348 22.9019 44.6568 20.4863 39.4946 20.9858C34.1114 20.6606 29.391 22.8093 25.9361 26.3863C22.4811 29.9634 20.0707 34.1444 20.5728 39.3125C20.2514 44.7013 22.4006 49.428 25.976 52.8889C29.5513 56.3497 33.7293 58.7653 38.8916 58.2659C44.2748 58.591 48.9951 56.4424 52.4501 52.8653Z" fill="#DEDEDE"/>
</g>
</svg>
