<svg width="24" height="24" viewBox="0 0 24 24" fill="currentColor" xmlns="http://www.w3.org/2000/svg">
<path fill-rule="evenodd" clip-rule="evenodd" d="M22.8993 9.8792C22.0671 9.36913 21.2349 8.85906 20.9933 8.26846C20.7248 7.65101 20.9396 6.71141 21.1812 5.74497C21.3691 4.99329 21.1544 4.18792 20.6175 3.65101L20.349 3.38255C19.7852 2.84564 19.0067 2.63087 18.255 2.81879C17.3154 3.03356 16.3758 3.24832 15.7315 3.00671C15.1409 2.7651 14.6309 1.93289 14.1208 1.10067C13.7181 0.42953 12.9933 0.0268456 12.2148 0H11.7852C11.0067 0.0268456 10.2819 0.42953 9.8792 1.10067C9.36913 1.93289 8.85906 2.73826 8.26846 3.00671C7.65101 3.27517 6.71141 3.0604 5.74497 2.81879C4.99329 2.63087 4.18792 2.84564 3.65101 3.38255L3.38255 3.65101C2.84564 4.21476 2.63087 4.99329 2.81879 5.74497C3.03356 6.68456 3.24832 7.62416 3.00671 8.26846C2.7651 8.85906 1.93289 9.36913 1.10067 9.8792C0.42953 10.2819 0.0268456 11.0067 0 11.7852V12.2148C0.0268456 12.9933 0.42953 13.7181 1.10067 14.1208C1.93289 14.6309 2.73826 15.1409 3.00671 15.7315C3.27517 16.349 3.0604 17.2886 2.81879 18.255C2.63087 19.0067 2.84564 19.8121 3.38255 20.349L3.65101 20.6175C4.21477 21.1544 4.99329 21.3691 5.74497 21.1812C6.68456 20.9664 7.62416 20.7517 8.26846 20.9933C8.85906 21.2349 9.36913 22.0671 9.8792 22.8993C10.2819 23.5705 11.0067 23.9732 11.7852 24H12.2148C12.9933 23.9732 13.7181 23.5705 14.1208 22.8993C14.6309 22.0671 15.1409 21.2617 15.7315 20.9933C16.349 20.7248 17.2886 20.9396 18.255 21.1812C19.0067 21.3691 19.8121 21.1544 20.349 20.6175L20.6175 20.349C21.1544 19.7852 21.3691 19.0067 21.1812 18.255C20.9664 17.3154 20.7517 16.3758 20.9933 15.7315C21.2349 15.1409 22.0671 14.6309 22.8993 14.1208C23.5705 13.7181 23.9732 12.9933 24 12.2148V11.7852C23.9732 11.0067 23.5705 10.2819 22.8993 9.8792ZM23 11.8048C22.9796 11.3508 22.7443 10.9524 22.3848 10.7367L22.3767 10.7318L22.352 10.7166C21.9536 10.4725 21.4984 10.1935 21.1125 9.89463C20.7382 9.60473 20.2971 9.19932 20.0719 8.65725C19.8365 8.10838 19.8458 7.51099 19.9027 7.02208C19.9615 6.51574 20.0918 5.97935 20.2111 5.50243C20.3167 5.07973 20.1904 4.63817 19.9103 4.35811L19.6517 4.09942C19.3295 3.79725 18.9039 3.68735 18.4976 3.78893L18.4877 3.79139L18.4506 3.79989C18.0001 3.90288 17.4855 4.02052 16.9981 4.0772C16.5117 4.13375 15.9258 4.14754 15.3804 3.94304L15.3666 3.93785L15.3529 3.93226C14.8057 3.70842 14.3971 3.26413 14.1054 2.8875C13.8065 2.50165 13.5275 2.04637 13.2834 1.64803L13.2633 1.61519C13.0476 1.25575 12.6492 1.02042 12.1953 1H11.8047C11.3508 1.02042 10.9524 1.25573 10.7367 1.61517L10.7318 1.62326C10.4805 2.03335 10.1973 2.49055 9.8917 2.8812C9.59632 3.25884 9.19997 3.68176 8.68226 3.91708L8.67475 3.92049L8.66718 3.92378C8.1156 4.1636 7.51394 4.15453 7.02208 4.09733C6.51574 4.03846 5.97935 3.90816 5.50243 3.78893C5.07973 3.68326 4.63817 3.8096 4.35811 4.08966L4.09944 4.34833C3.79725 4.67049 3.68735 5.0961 3.78893 5.50243L3.79139 5.51226L3.79989 5.54942C3.90287 5.99989 4.02051 6.51445 4.0772 7.00195C4.13375 7.48826 4.14754 8.07425 3.94304 8.61958L3.93785 8.63341L3.93226 8.64709C3.70842 9.19425 3.26413 9.60292 2.8875 9.89463C2.50166 10.1935 2.04638 10.4725 1.64804 10.7166L1.61519 10.7367C1.25575 10.9524 1.02042 11.3508 1 11.8047V12.1953C1.02042 12.6492 1.25573 13.0476 1.61517 13.2633L1.62326 13.2682C2.03335 13.5195 2.49055 13.8027 2.8812 14.1083C3.25884 14.4037 3.68176 14.8 3.91708 15.3177L3.92049 15.3253L3.92378 15.3328C4.1636 15.8844 4.15453 16.4861 4.09733 16.9779C4.03846 17.4843 3.90816 18.0207 3.78893 18.4976C3.68326 18.9203 3.8096 19.3618 4.08966 19.6419L4.34833 19.9006C4.67049 20.2027 5.0961 20.3126 5.50243 20.2111L5.51226 20.2086L5.54946 20.2001C5.99992 20.0971 6.51447 19.9795 7.00195 19.9228C7.48826 19.8663 8.07425 19.8525 8.61958 20.057L8.63341 20.0621L8.64709 20.0677C9.19425 20.2916 9.60292 20.7359 9.89463 21.1125C10.1935 21.4983 10.4725 21.9536 10.7166 22.3519L10.7367 22.3848C10.9524 22.7443 11.3508 22.9796 11.8048 23H12.1952C12.6492 22.9796 13.0476 22.7443 13.2633 22.3848L13.2682 22.3767C13.5195 21.9666 13.8028 21.5094 14.1083 21.1188C14.4037 20.7412 14.8 20.3182 15.3177 20.0829L15.3253 20.0795L15.3328 20.0762C15.8844 19.8364 16.4861 19.8455 16.9779 19.9027C17.4843 19.9615 18.0207 20.0918 18.4976 20.2111C18.9203 20.3167 19.3618 20.1904 19.6419 19.9103L19.9006 19.6517C20.1948 19.3379 20.3068 18.9261 20.2186 18.5295L20.2172 18.5252L20.2001 18.4506C20.0971 18.0001 19.9795 17.4855 19.9228 16.998C19.8663 16.5117 19.8525 15.9257 20.057 15.3804L20.0622 15.3666L20.0677 15.3529C20.2916 14.8057 20.7359 14.3971 21.1125 14.1054C21.4983 13.8065 21.9536 13.5275 22.352 13.2834L22.3848 13.2633C22.7443 13.0476 22.9796 12.6492 23 12.1952V11.8048ZM18 12C18 15.3137 15.3137 18 12 18C8.68629 18 6 15.3137 6 12C6 8.68629 8.68629 6 12 6C15.3137 6 18 8.68629 18 12ZM17 12C17 14.7614 14.7614 17 12 17C9.23858 17 7 14.7614 7 12C7 9.23858 9.23858 7 12 7C14.7614 7 17 9.23858 17 12Z" fill="currentColor"/>
</svg>
