<svg width="16" height="13" viewBox="0 0 16 13" fill="currentColor" xmlns="http://www.w3.org/2000/svg">
<path d="M13.3599 9.592C15.0609 8.074 16.0009 6.354 16.0009 6.354C16.0009 6.354 13.0009 0.854004 8.00094 0.854004C7.04053 0.857311 6.09099 1.05743 5.21094 1.442L5.98094 2.213C6.62837 1.97716 7.31189 1.85568 8.00094 1.854C10.1209 1.854 11.8799 3.022 13.1689 4.311C13.7893 4.93469 14.3454 5.61913 14.8289 6.354C14.7709 6.441 14.7069 6.537 14.6339 6.642C14.2989 7.122 13.8039 7.762 13.1689 8.397C13.0039 8.562 12.8319 8.725 12.6519 8.883L13.3599 9.592Z" fill="currentColor"/>
<path d="M11.2974 7.52987C11.5205 6.90571 11.5618 6.23102 11.4165 5.58429C11.2712 4.93756 10.9452 4.3454 10.4765 3.87669C10.0078 3.40798 9.41566 3.08201 8.76893 2.9367C8.12221 2.79139 7.44751 2.83272 6.82335 3.05587L7.64635 3.87887C8.03066 3.82386 8.4225 3.85911 8.79082 3.98183C9.15915 4.10455 9.49382 4.31136 9.76834 4.58588C10.0429 4.8604 10.2497 5.19508 10.3724 5.5634C10.4951 5.93172 10.5304 6.32356 10.4754 6.70787L11.2974 7.52987ZM8.35435 8.82887L9.17635 9.65087C8.5522 9.87402 7.8775 9.91535 7.23077 9.77004C6.58405 9.62473 5.99188 9.29876 5.52317 8.83005C5.05447 8.36135 4.72849 7.76918 4.58318 7.12245C4.43787 6.47572 4.4792 5.80103 4.70235 5.17687L5.52535 5.99987C5.47035 6.38418 5.5056 6.77602 5.62832 7.14434C5.75104 7.51266 5.95785 7.84734 6.23237 8.12186C6.50688 8.39638 6.84156 8.60319 7.20988 8.72591C7.5782 8.84863 7.97005 8.88388 8.35435 8.82887Z" fill="currentColor"/>
<path d="M3.35 3.824C3.17 3.984 2.997 4.146 2.832 4.311C2.21165 4.93469 1.65552 5.61913 1.172 6.354L1.367 6.642C1.702 7.122 2.197 7.762 2.832 8.397C4.121 9.686 5.881 10.854 8 10.854C8.716 10.854 9.39 10.721 10.02 10.494L10.79 11.266C9.90994 11.6505 8.9604 11.8507 8 11.854C3 11.854 0 6.354 0 6.354C0 6.354 0.939 4.633 2.641 3.116L3.349 3.825L3.35 3.824ZM13.646 12.708L1.646 0.708L2.354 0L14.354 12L13.646 12.708Z" fill="currentColor"/>
</svg>
