<svg width="16" height="16" viewBox="0 0 16 16" fill="currentColor" xmlns="http://www.w3.org/2000/svg">
<path d="M13.9294 0H2.07059C0.941176 0 0 0.941176 0 2.07059V13.9294C0 15.0588 0.941176 16 2.07059 16H13.8353C14.9647 16 15.9059 15.1529 16 13.9294V2.07059C16 0.941176 15.0588 0 13.9294 0ZM13.8353 15.0588H2.07059C1.50588 15.0588 0.941176 14.4941 0.941176 13.9294V2.07059C0.941176 1.50588 1.50588 0.941176 2.07059 0.941176H13.9294C14.4941 0.941176 15.0588 1.50588 15.0588 2.07059V13.8353C14.9647 14.5882 14.4941 15.0588 13.8353 15.0588Z" fill="currentColor"/>
<path d="M10.1645 6.96131C10.0704 6.86719 9.97631 6.86719 9.97631 6.86719C9.92578 6.86719 9.84766 6.96131 9.78807 7.05542L7.2469 10.2554L5.45866 8.37307C5.36455 8.27895 5.36454 8.27895 5.27043 8.27895C5.17631 8.27895 5.08219 8.37307 4.98807 8.46719L2.54102 11.3848V12.7966C2.54102 12.9848 2.63513 13.1731 2.72925 13.2672C2.82337 13.3613 3.0116 13.4554 3.19984 13.4554H12.894C12.9881 13.4554 13.2704 13.4554 13.3645 13.2672C13.4587 13.1731 13.5528 12.8907 13.5528 12.7966V9.69072L10.1645 6.96131Z" fill="currentColor"/>
<path d="M5.08257 5.64531C6.02375 5.64531 6.68257 4.89237 6.68257 4.04531C6.68257 3.10414 5.92963 2.44531 5.08257 2.44531C4.14139 2.44531 3.48257 3.19825 3.48257 4.04531C3.38845 4.98649 4.14139 5.64531 5.08257 5.64531Z" fill="currentColor"/>
</svg>
